<svg width="97" height="98" viewBox="0 0 97 98" fill="none" xmlns="http://www.w3.org/2000/svg">
<g clip-path="url(#clip0_12_1496)">
<path d="M55.3176 76.6092C55.0266 75.3705 55.1018 74.2027 55.3991 72.9184C56.0509 70.0991 56.1557 67.2381 55.805 64.2975C55.2769 59.8675 53.6531 55.9856 51.0811 52.4203C50.5438 51.6759 50.2566 50.4318 49.6819 50.1069C46.9863 48.5738 44.9735 46.0494 42.0228 44.9295C41.8836 44.8767 41.6983 44.8762 41.6052 44.784C39.7137 42.8678 37.1078 43.2238 34.8026 42.7034C31.3926 41.9332 27.9971 42.603 24.6278 43.2369C24.4367 43.2728 24.2233 43.4144 24.0657 43.3644C21.6091 42.5831 20.0722 44.2064 18.4038 45.4984C14.4379 48.569 10.959 52.0721 8.80078 56.6782C7.44278 59.578 6.65708 62.6087 6.48587 65.8631C6.03822 74.3535 9.26347 81.2099 15.6073 86.6138C18.7409 89.2813 22.454 90.8745 26.593 91.6748C30.1039 92.3538 33.545 92.2941 36.9167 91.5346C40.513 90.7247 43.8037 89.0306 46.6933 86.6545C49.7721 84.1238 52.3014 81.0974 54.5848 77.8639C55.0901 77.1481 55.5727 76.583 56.4496 76.4725C57.3265 76.3619 57.8639 75.7687 58.4299 75.1955C62.483 71.0928 66.5172 66.9713 70.5971 62.8959C76.0937 57.4066 81.6082 51.9366 87.1404 46.4859C90.8405 42.8246 93.896 38.7884 95.2234 33.6203C95.7627 31.5164 95.9878 29.4008 96.0479 27.2503C96.0717 26.4209 95.7516 25.7279 95.1997 25.1289" stroke="black" stroke-width="2" stroke-linecap="round" stroke-linejoin="round"/>
<path d="M76.6736 42.2428C77.7533 41.7845 78.294 40.7514 79.0734 39.9754C83.6082 35.4591 88.1374 30.937 92.6612 26.409C93.0865 25.9856 93.5536 25.5637 94.0784 25.2882C95.3311 24.6305 95.9383 23.6208 95.6177 22.303C93.2587 12.6059 87.4639 5.94105 77.7877 3.27161C68.9607 0.837393 60.8292 2.76624 54.2245 9.18861C43.8037 19.3164 33.642 29.7119 23.3363 39.9633C22.4633 40.8334 22.1296 41.8272 21.9399 42.9514" stroke="black" stroke-width="2" stroke-linecap="round" stroke-linejoin="round"/>
<path d="M40.8917 66.9926C40.7593 69.0082 40.3582 70.9361 39.1981 72.652C35.5465 78.0525 28.047 78.3067 24.0564 73.6443C21.3176 70.4433 20.8336 66.7952 22.3914 63.469C24.1815 59.6462 27.269 57.649 31.5579 57.6577C31.9347 57.6577 32.3121 57.6577 32.6894 57.6577" stroke="black" stroke-width="2" stroke-linecap="round" stroke-linejoin="round"/>
<path d="M81.6255 18.0571C81.3302 18.8278 80.5949 19.1988 80.0594 19.744C75.3617 24.5238 70.649 29.2875 65.9212 34.035C60.5639 39.4023 55.1908 44.7543 49.8018 50.0909" stroke="black" stroke-width="2" stroke-linecap="round" stroke-linejoin="round"/>
<path d="M58.9949 22.1592C59.1568 23.0957 58.6229 23.6811 58.0127 24.2883C52.3893 29.8852 46.7751 35.4912 41.1702 41.1062C40.5368 41.7367 39.9252 42.3672 39.6182 43.2319" stroke="black" stroke-width="2" stroke-linecap="round" stroke-linejoin="round"/>
<path d="M30.7086 50.4448C28.9582 50.7945 27.1865 50.8997 25.4619 51.5395C19.7117 53.6735 16.0417 57.859 14.8268 63.6189C12.911 72.7034 17.7392 81.1968 27.1943 83.5975C34.3835 85.4231 41.1696 82.7245 45.407 76.177C46.7912 74.0386 47.5735 71.6854 47.8456 69.1149C48.4577 63.3322 46.4847 58.555 42.2831 54.7104C39.5274 52.1884 36.2206 50.7159 32.4061 50.5801C31.8862 50.5617 31.3687 50.4899 30.8502 50.4424" stroke="black" stroke-width="2" stroke-linecap="round" stroke-linejoin="round"/>
<path d="M31.1685 70.1304C32.7403 70.1304 34.0145 68.8562 34.0145 67.2845C34.0145 65.7127 32.7403 64.4385 31.1685 64.4385C29.5967 64.4385 28.3225 65.7127 28.3225 67.2845C28.3225 68.8562 29.5967 70.1304 31.1685 70.1304Z" stroke="black" stroke-width="2" stroke-linecap="round" stroke-linejoin="round"/>
</g>
<defs>
<clipPath id="clip0_12_1496">
<rect width="97" height="97" fill="white" transform="translate(0 0.484375)"/>
</clipPath>
</defs>
</svg>
