<svg width="95" height="96" viewBox="0 0 95 96" fill="none" xmlns="http://www.w3.org/2000/svg">
<path d="M33.3531 22.414L35.3742 22.452C35.4378 22.452 35.5134 22.4297 35.5642 22.4558C36.1394 22.7574 36.7992 22.6458 37.3958 22.8358C38.0969 23.0591 38.8051 23.2633 39.4915 23.5265C41.1507 24.1611 42.6863 25.0146 44.0325 26.1893C45.3687 27.3554 46.5828 28.6189 47.5142 30.1489C47.9546 30.8719 48.3692 31.611 48.6989 32.3781C48.9971 33.078 49.2432 33.7989 49.4351 34.5351C49.5529 34.9801 49.5829 35.4452 49.7496 35.8774C49.802 36.0128 49.8406 36.1532 49.8646 36.2964C50.0674 37.5356 50.0683 38.7887 49.9971 40.0322C49.9532 40.7025 49.8536 41.3679 49.6993 42.0215C49.5701 42.5858 49.4085 43.1378 49.2608 43.6954C48.8943 45.0657 48.2557 46.3482 47.3831 47.4665C46.7438 48.2963 46.0484 49.0815 45.409 49.9137C44.6344 50.913 44.0003 52.0137 43.5242 53.185C43.234 53.9032 42.939 54.6276 42.7642 55.37C42.6027 56.0473 42.3054 56.7066 42.3244 57.4225C42.3205 57.5412 42.2891 57.6575 42.2327 57.7621C42.1159 58.0233 42.1011 58.2884 42.0817 58.5663C42.0494 59.027 41.9463 59.4935 41.733 59.8963C41.448 60.4273 40.9659 60.6776 40.3351 60.6719C38.5429 60.6553 36.7493 60.699 34.9586 60.6477C34.3705 60.6306 33.7887 60.6553 33.2039 60.6653C32.9441 60.6696 32.6814 60.6824 32.4392 60.5556C32.4116 60.5354 32.3788 60.5236 32.3447 60.5216C32.3106 60.5196 32.2766 60.5274 32.2468 60.5442C31.9252 60.7099 31.568 60.6658 31.2208 60.6658C29.441 60.6658 27.6616 60.6591 25.8818 60.6724C25.5493 60.6724 25.3379 60.5774 25.1489 60.2924C24.7846 59.74 24.6739 59.1329 24.5708 58.4964C24.4815 57.9336 24.4535 57.3531 24.2136 56.8121C24.0844 56.5204 24.1252 56.1799 24.0302 55.8578C23.7647 54.9553 23.4883 54.0637 23.1363 53.1935C22.4551 51.5101 21.4353 50.0495 20.2445 48.6877C19.2712 47.5743 18.3616 46.4039 17.8382 44.9936C17.5124 44.1386 17.2469 43.2618 17.0435 42.3697C16.8981 41.708 16.8155 41.0397 16.7053 40.378C16.5219 39.2803 16.558 38.1636 16.7053 37.064C16.8254 36.1539 16.9903 35.2404 17.2449 34.3603C17.4786 33.5528 17.7622 32.7495 18.1426 31.9905C18.715 30.8334 19.3505 29.7214 20.1519 28.6997C21.3275 27.202 22.725 25.9604 24.3172 24.9329C25.0403 24.4569 25.8073 24.051 26.6076 23.7207C27.427 23.392 28.2554 23.0557 29.1222 22.8814C30.19 22.6672 31.2488 22.3556 32.3617 22.4449C32.6767 22.4701 32.9973 22.4254 33.3151 22.4126" stroke="black" stroke-width="2" stroke-linecap="round" stroke-linejoin="round"/>
<path d="M25.3446 60.6636C25.2827 60.8303 25.1927 60.9851 25.0786 61.1215C24.8273 61.4193 24.7532 61.7599 24.7651 62.1508C24.7903 62.9644 25.3684 63.5615 26.1839 63.5615H40.5223C40.7927 63.556 41.0584 63.6335 41.2834 63.7836C41.5085 63.9336 41.6822 64.1491 41.781 64.4008C42.0157 64.967 41.9074 65.565 41.5155 65.9683C41.2305 66.2614 40.9075 66.3958 40.4843 66.3958C36.1371 66.3841 31.7897 66.3816 27.4422 66.3882C26.5791 66.3882 25.955 67.0128 25.955 67.8754C25.955 68.6886 26.5853 69.2866 27.4422 69.2866H38.6522C39.6383 69.2866 40.3294 70.1611 40.1014 71.1173C40.0339 71.393 39.8781 71.6392 39.6579 71.8184C39.4376 71.9976 39.1649 72.0999 38.8812 72.11C36.2758 72.1922 33.6695 72.1314 31.0636 72.1394C30.5848 72.1394 30.135 72.2221 29.7336 72.4624C29.5313 72.584 29.3911 72.5788 29.2325 72.4501C29.0672 72.3176 28.869 72.2326 28.6592 72.204" stroke="black" stroke-width="2" stroke-linecap="round" stroke-linejoin="round"/>
<path d="M34.3829 45.9053C34.3943 46.547 34.1796 47.1683 34.2095 47.8119C34.2152 47.9387 34.1929 48.066 34.1929 48.1919C34.1929 52.2852 34.1929 56.3782 34.1929 60.4711" stroke="black" stroke-width="2" stroke-linecap="round" stroke-linejoin="round"/>
<path d="M35.1453 45.2946C35.1453 44.6182 35.5842 44.1931 36.0231 43.7699C36.4817 43.3233 37.0297 42.979 37.631 42.7596C37.9772 42.6351 38.4147 42.5696 38.7643 42.8218C39.1391 43.0911 39.2312 43.4816 39.111 43.9224C39.0308 44.2183 38.8042 44.394 38.5776 44.5712C38.2247 44.8496 37.81 44.9921 37.402 45.1588C36.9997 45.325 36.5613 45.2837 36.1713 45.478C35.9457 45.5906 35.6759 45.5611 35.4536 45.4419C35.1771 45.2937 34.96 45.3246 34.7643 45.5621C34.534 45.8471 34.2779 45.8618 33.9207 45.7696C33.441 45.6461 32.9304 45.667 32.4378 45.791C32.1528 45.8627 32.0801 46.0732 32.1362 46.3235C32.2924 47.0156 32.3262 47.7162 32.3262 48.422C32.3233 52.4387 32.3233 56.4554 32.3262 60.4723" stroke="black" stroke-width="2" stroke-linecap="round" stroke-linejoin="round"/>
<path d="M31.37 45.2567C31.3073 44.5337 30.8608 44.0492 30.3388 43.6189C29.8908 43.2493 29.4006 42.9249 28.8487 42.7543C28.5005 42.647 28.0958 42.589 27.7491 42.8189C27.4285 43.0317 27.2769 43.3505 27.333 43.7305C27.3971 44.1699 27.7177 44.4487 28.0559 44.6805C28.6036 45.0543 29.2325 45.231 29.8828 45.3341C29.9592 45.346 30.0495 45.3374 30.1093 45.3754C30.552 45.6571 30.9643 45.5265 31.3629 45.2771L32.1704 45.906" stroke="black" stroke-width="2" stroke-linecap="round" stroke-linejoin="round"/>
<path d="M28.0521 9.75342C28.0576 10.0397 28.1022 10.3238 28.1847 10.598C28.3324 11.1114 28.3566 11.6601 28.4345 12.194C28.4478 12.2828 28.4293 12.3669 28.4654 12.4633C28.692 13.0637 28.7095 13.7106 28.8582 14.3281C29.014 14.9737 29.109 15.6349 29.2311 16.2823C29.3313 16.8157 29.461 17.3615 29.5109 17.9134C29.5441 18.283 29.7166 18.6364 29.6923 19.0202" stroke="black" stroke-width="2" stroke-linecap="round" stroke-linejoin="round"/>
<path d="M40.7512 9.48633C40.8937 9.88533 40.851 10.2587 40.7374 10.6738C40.6339 11.0538 40.5683 11.4709 40.4553 11.8404C40.28 12.4104 40.147 12.9923 39.9969 13.5675C39.7461 14.5308 39.4678 15.4875 39.2307 16.4555C39.1224 16.8968 39.0555 17.3685 38.8602 17.805C38.6873 18.1921 38.6479 18.6391 38.552 19.0495C38.2731 19.0837 38.0019 19.0101 37.7388 19.0946" stroke="black" stroke-width="2" stroke-linecap="round" stroke-linejoin="round"/>
<path d="M63.5939 38.8498C62.9327 38.779 62.2706 38.8498 61.6113 38.8374C60.4789 38.8127 59.3464 38.8521 58.2174 38.8274C57.1856 38.8056 56.1573 38.8156 55.1298 38.8517C54.8239 38.8621 54.5213 38.7567 54.2145 38.8308" stroke="black" stroke-width="2" stroke-linecap="round" stroke-linejoin="round"/>
<path d="M12.2645 38.8311C11.514 38.7836 10.7673 38.7503 10.0135 38.8406C9.40689 38.9138 8.79177 38.7613 8.18424 38.7846C7.06419 38.8283 5.94794 38.8321 4.82789 38.7846C4.20707 38.7575 3.58244 38.8259 2.95972 38.8511" stroke="black" stroke-width="2" stroke-linecap="round" stroke-linejoin="round"/>
<path d="M60.0092 26.3418C58.5599 27.0158 57.1088 27.6846 55.6624 28.3643C54.5152 28.9039 53.3738 29.4568 52.2295 30.0031" stroke="black" stroke-width="2" stroke-linecap="round" stroke-linejoin="round"/>
<path d="M7.57385 24.377C7.83415 24.2991 7.9624 24.5409 8.14053 24.6354C9.34228 25.2734 10.5113 25.9706 11.6988 26.6347C12.7913 27.246 13.8781 27.8697 14.9734 28.4734C15.1021 28.5446 15.2518 28.5779 15.3914 28.6287" stroke="black" stroke-width="2" stroke-linecap="round" stroke-linejoin="round"/>
<path d="M59.1703 53.2653C58.7703 53.29 58.4934 52.9941 58.1884 52.8283C56.6684 52.0018 55.1826 51.1107 53.6759 50.2553C52.9221 49.8278 52.1521 49.4264 51.3893 49.0132" stroke="black" stroke-width="2" stroke-linecap="round" stroke-linejoin="round"/>
<path d="M15.0485 49.0508C13.1672 50.1132 11.286 51.1742 9.40501 52.2337C8.82503 52.56 8.23176 52.8626 7.65463 53.1937C7.48648 53.2887 7.32213 53.2469 7.15588 53.2649" stroke="black" stroke-width="2" stroke-linecap="round" stroke-linejoin="round"/>
<path d="M21.4168 22.2234C21.3484 21.8097 21.0126 21.5584 20.7965 21.2387C19.9961 20.0641 19.1549 18.9174 18.3265 17.7617C17.68 16.8592 17.0164 15.9658 16.3937 15.0457C16.2711 14.8647 16.1562 14.8671 16.0009 14.8633" stroke="black" stroke-width="2" stroke-linecap="round" stroke-linejoin="round"/>
<path d="M52.2106 15.626C52.365 16.1224 52.0449 16.4425 51.7698 16.766C50.8859 17.8134 49.9853 18.8465 49.1051 19.8967C48.2814 20.88 47.4787 21.8808 46.6588 22.8669C46.6009 22.9352 46.5578 23.0147 46.5321 23.1004C46.5065 23.1862 46.4988 23.2763 46.5097 23.3652" stroke="black" stroke-width="2" stroke-linecap="round" stroke-linejoin="round"/>
<path d="M29.5393 72.5996C29.575 73.0247 29.7511 73.4257 30.04 73.7396C30.4114 74.1433 30.732 74.5713 30.9534 75.0772C31.2436 75.7389 31.6906 76.2533 32.3998 76.4889C33.24 76.7677 34.0566 76.6974 34.7947 76.2115C35.0878 76.0186 35.3291 75.7303 35.5291 75.4235C35.6977 75.1646 35.7898 74.8929 35.7556 74.5827" stroke="black" stroke-width="2" stroke-linecap="round" stroke-linejoin="round"/>
<path d="M39.6454 18.1811C39.4164 18.172 39.1846 18.2081 38.959 18.1426" stroke="black" stroke-width="2" stroke-linecap="round" stroke-linejoin="round"/>
<path d="M32.6387 76.5767V83.1445C32.6387 83.8745 32.7826 84.5973 33.0623 85.2716C33.3419 85.9459 33.7518 86.5584 34.2684 87.0741C34.7851 87.5898 35.3983 87.9986 36.0731 88.277C36.7479 88.5554 37.4709 88.6981 38.2009 88.6968L82.0876 88.6184C82.6424 88.6183 83.1918 88.5089 83.7043 88.2964C84.2168 88.0838 84.6824 87.7723 85.0744 87.3797C85.4664 86.987 85.7772 86.521 85.9889 86.0081C86.2007 85.4953 86.3093 84.9457 86.3084 84.3909L86.2975 77.9741C86.7663 77.6763 87.0423 77.227 87.2665 76.7235C87.5943 75.9882 87.9624 75.2728 88.341 74.5627C88.5017 74.2683 88.6045 73.9458 88.6435 73.6127C88.653 73.53 88.6212 73.4194 88.691 73.3752C89.3641 72.9372 89.5437 72.1706 89.8861 71.5293C90.8252 69.7718 91.7006 67.9835 92.597 66.2046C92.662 66.0758 92.7518 65.9196 92.7281 65.7928C92.5989 65.1126 92.9181 64.4836 92.9181 63.8177C92.9111 51.8189 92.9111 39.8199 92.9181 27.8208C92.9181 27.4408 92.8919 27.0722 92.7703 26.7154C92.7381 26.6383 92.7286 26.5536 92.7428 26.4713C93.0715 24.994 93.0017 23.5087 92.7309 22.0429C92.3215 19.8222 90.3341 17.9455 88.1025 17.6187C86.7317 17.4183 85.3432 17.3684 83.9866 17.7204C82.7959 18.0317 81.7366 18.717 80.9645 19.6755C80.1925 20.6339 79.7485 21.8149 79.6979 23.0446C79.666 23.874 79.6945 24.7071 79.6922 25.5365C79.6922 25.869 79.6736 26.2015 79.8347 26.5036C79.8822 26.5891 79.9007 26.6798 79.8613 26.7454C79.6043 27.1729 79.696 27.6436 79.6955 28.0977C79.6917 39.9584 79.6906 51.819 79.6922 63.6795C79.6922 64.1146 79.6561 64.5535 79.8641 64.962C79.8803 64.9933 79.9387 64.9867 79.9059 65.0674C79.6551 65.6911 79.9966 66.2117 80.2531 66.7233C81.2506 68.7183 82.2239 70.7256 83.3216 72.6608C83.6955 73.321 83.9786 73.9941 84.2716 74.6805C84.6227 75.4999 85.1266 76.248 85.4767 77.0712C85.5822 77.2972 85.733 77.4992 85.9199 77.6644C86.1446 77.8768 86.4177 78.0677 86.308 78.4591" stroke="black" stroke-width="2" stroke-linecap="round" stroke-linejoin="round"/>
<path d="M83.8057 32.147C83.9605 32.2491 83.9444 32.4082 83.9444 32.5621C83.9444 33.0932 83.9444 33.6239 83.9444 34.1543C83.9444 42.3243 83.9444 50.4929 83.9444 58.66C83.9444 58.9731 83.8969 59.2923 84.2232 59.4908" stroke="black" stroke-width="2" stroke-linecap="round" stroke-linejoin="round"/>
<path d="M88.6169 32.3892V59.2485" stroke="black" stroke-width="2" stroke-linecap="round" stroke-linejoin="round"/>
<path d="M79.9292 26.6096C81.0136 26.5469 82.098 26.602 83.1825 26.6048C85.0863 26.61 86.9905 26.5535 88.8934 26.5868C90.1407 26.6081 91.3857 26.5664 92.6317 26.5749" stroke="black" stroke-width="2" stroke-linecap="round" stroke-linejoin="round"/>
<path d="M79.998 65.0288C80.3215 65.0056 80.6445 64.9629 80.9675 64.9624C84.4977 64.9576 88.0286 64.9564 91.56 64.9586C91.9215 64.9586 92.282 64.9619 92.633 65.063" stroke="black" stroke-width="2" stroke-linecap="round" stroke-linejoin="round"/>
<path d="M88.6169 73.4396C88.3528 73.2301 88.0469 73.1598 87.7168 73.1613C86.7478 73.1651 85.7783 73.1665 84.8093 73.1613C84.5032 73.1573 84.2026 73.2423 83.9438 73.4059" stroke="black" stroke-width="2" stroke-linecap="round" stroke-linejoin="round"/>
</svg>
