<svg width="94" height="95" viewBox="0 0 94 95" fill="none" xmlns="http://www.w3.org/2000/svg">
<path d="M13.3188 24.5094C7.70416 22.1547 5.55485 23.6202 5.55485 29.803C5.55485 34.6262 5.83262 39.4695 5.48388 44.2673C5.05712 50.131 7.47245 54.8108 9.94465 59.8967C13.1021 66.3935 17.8228 71.2895 22.9082 75.9707C25.8692 78.6967 27.2543 81.6328 26.7537 85.5686C26.6513 86.3746 26.8576 87.2206 26.9342 88.2123H43.669C43.669 82.0408 43.7306 76.0393 43.6061 70.0388C43.5863 69.088 42.91 67.9901 42.229 67.24C36.6331 61.0769 30.9146 55.0247 25.3621 48.823C24.3093 47.648 23.0624 47.492 21.6524 47.225C20.5826 48.2012 19.6784 49.5224 18.9654 50.9822" stroke="black" stroke-width="2" stroke-linecap="round" stroke-linejoin="round"/>
<path d="M76.8449 50.9783L74.6218 47.5473C71.3369 46.5491 69.8442 49.1453 68.4803 50.718C64.216 55.6304 59.7195 60.3196 55.2897 65.0699C53.1 67.4199 51.8837 69.8587 52.0703 73.2164C52.3443 78.1448 52.1408 83.0995 52.1408 88.2094H69.3164C66.7667 79.8965 72.7944 75.8954 77.6016 71.5018C83.5278 66.0851 86.0615 58.6835 89.9278 52.0509C90.4918 51.0822 90.2229 50.146 90.23 49.2126C90.277 42.743 90.2553 36.2725 90.2553 29.8016C90.2553 23.6187 88.106 22.1533 82.4914 24.508" stroke="black" stroke-width="2" stroke-linecap="round" stroke-linejoin="round"/>
<path d="M47.9041 7.56986C46.9641 6.98189 45.9893 6.44186 45.0841 5.79796C39.36 1.73245 33.9728 3.83006 30.6504 7.60605C27.0934 11.6481 26.9158 17.9414 31.0109 21.9881C36.3985 27.3146 42.132 32.291 47.8839 37.5724C51.5433 34.2823 55.0279 31.1724 58.4838 28.0313C60.3925 26.2961 62.2649 24.52 64.1327 22.7401C68.4356 18.6398 69.369 12.2121 64.7841 7.26765C60.7125 2.87831 53.5417 3.12459 47.9111 7.55576" stroke="black" stroke-width="2" stroke-linecap="round" stroke-linejoin="round"/>
<path d="M21.4358 47.096C20.6546 41.817 21.0771 36.5027 21.1852 31.217C21.229 29.087 20.9343 26.9894 21.0363 24.8603C21.1749 21.9745 19.9181 20.6279 17.554 20.6279C15.3812 20.6279 13.4251 22.7453 13.708 25.2114C14.4097 31.328 13.7795 37.453 14.0445 43.5663C14.0915 44.6417 13.7155 45.717 14.6974 46.774C19.9501 52.4192 23.5907 59.3752 29.2002 64.7417" stroke="black" stroke-width="2" stroke-linecap="round" stroke-linejoin="round"/>
<path d="M74.3723 47.096C75.1535 41.817 74.7314 36.5027 74.6228 31.217C74.5791 29.087 74.8743 26.9894 74.7718 24.8603C74.6308 21.9745 75.8904 20.6279 78.2545 20.6279C80.4268 20.6279 82.3835 22.7453 82.1005 25.2114C81.3988 31.328 82.0291 37.453 81.764 43.5663C81.717 44.6417 82.093 45.717 81.1112 46.774C75.858 52.4192 72.2178 59.3752 66.6084 64.7417" stroke="black" stroke-width="2" stroke-linecap="round" stroke-linejoin="round"/>
<path d="M34.6699 57.3303C35.8247 53.1365 35.1898 48.8492 35.0967 44.6282C35.0365 41.9022 32.9018 41.349 28.8457 42.5085" stroke="black" stroke-width="2" stroke-linecap="round" stroke-linejoin="round"/>
<path d="M66.9612 42.5083C62.1983 40.7806 59.9959 42.4937 60.5881 47.4512C60.9791 50.7262 60.0034 54.0876 61.1384 57.3301" stroke="black" stroke-width="2" stroke-linecap="round" stroke-linejoin="round"/>
<path d="M27.4352 50.2722C28.6022 46.9249 28.1087 43.4628 28.1402 40.0379C28.1557 38.2731 27.9719 36.4885 28.1754 34.7481C28.7554 29.7891 26.554 28.0741 21.7905 29.8032" stroke="black" stroke-width="2" stroke-linecap="round" stroke-linejoin="round"/>
<path d="M74.0198 29.8032C69.2563 28.076 67.185 29.7797 67.6047 34.7495C67.92 38.4869 67.7231 42.2742 67.6395 46.0365C67.6061 47.525 67.8853 48.9035 68.3731 50.2722" stroke="black" stroke-width="2" stroke-linecap="round" stroke-linejoin="round"/>
</svg>
