<?xml version="1.0" encoding="UTF-8"?>
<svg id="Layer_1" data-name="Layer 1" xmlns="http://www.w3.org/2000/svg" viewBox="0 0 500 500">
  <defs>
    <style>
      .cls-1 {
        fill: #fff;
      }
    </style>
  </defs>
  <path class="cls-1" d="M315.05,231.89c-1.43-2.76-3.29-4.83-5.56-6.21-2.28-1.38-4.75-2.07-7.41-2.07h-24.5v36.6h25.46c2.65,0,5.04-.74,7.16-2.23,2.12-1.49,3.82-3.63,5.1-6.45,1.28-2.81,1.91-6.02,1.91-9.63,0-3.92-.72-7.27-2.15-10.03ZM182.66,182.66v134.68h72.96v-112.98h47.89c5,0,9.6.98,13.82,2.95v-24.65h-134.67ZM304.32,279.47h-26.73v37.87h39.75v-40.31c-3.91,1.63-8.25,2.44-13.02,2.44Z"/>
</svg>