<?xml version="1.0" encoding="UTF-8"?>
<svg id="Layer_1" data-name="Layer 1" xmlns="http://www.w3.org/2000/svg" viewBox="0 0 366.2 134.68">
  <defs>
    <style>
      .cls-1 {
        fill: #fff;
      }
    </style>
  </defs>
  <g>
    <path class="cls-1" d="M181.94,40.23c-.94,1.69-2.38,3.06-4.32,4.1-1.94,1.04-4.36,1.56-7.24,1.56h-5.33v12.66h-8.59V23.27h13.92c2.81,0,5.19.49,7.14,1.46,1.94.97,3.4,2.31,4.37,4.02.97,1.71,1.46,3.67,1.46,5.88,0,2.04-.47,3.91-1.41,5.6ZM173.4,37.89c.8-.77,1.21-1.86,1.21-3.27s-.4-2.5-1.21-3.27c-.8-.77-2.03-1.16-3.67-1.16h-4.67v8.84h4.67c1.64,0,2.86-.38,3.67-1.16Z"/>
    <path class="cls-1" d="M200.18,31.54c1.51-.89,3.18-1.33,5.02-1.33v9.09h-2.36c-2.14,0-3.75.46-4.82,1.38-1.07.92-1.61,2.54-1.61,4.85v13.01h-8.59v-28.04h8.59v4.67c1-1.54,2.26-2.76,3.77-3.64Z"/>
    <path class="cls-1" d="M236.61,46.59h-19.45c.13,1.74.69,3.07,1.68,3.99.99.92,2.2,1.38,3.64,1.38,2.14,0,3.63-.9,4.47-2.71h9.15c-.47,1.84-1.31,3.5-2.54,4.97-1.22,1.47-2.76,2.63-4.6,3.47-1.84.84-3.9,1.26-6.18,1.26-2.75,0-5.19-.59-7.34-1.76-2.14-1.17-3.82-2.85-5.02-5.02-1.21-2.18-1.81-4.72-1.81-7.64s.59-5.46,1.78-7.64c1.19-2.18,2.86-3.85,5-5.02,2.14-1.17,4.61-1.76,7.39-1.76s5.12.57,7.24,1.71c2.11,1.14,3.76,2.76,4.95,4.87,1.19,2.11,1.78,4.57,1.78,7.39,0,.8-.05,1.64-.15,2.51ZM227.97,41.81c0-1.47-.5-2.65-1.51-3.52-1-.87-2.26-1.31-3.77-1.31s-2.66.42-3.64,1.26c-.99.84-1.6,2.03-1.83,3.57h10.75Z"/>
    <path class="cls-1" d="M246.16,57.69c-1.91-.84-3.42-1.98-4.52-3.44-1.11-1.46-1.73-3.09-1.86-4.9h8.49c.1.97.55,1.76,1.36,2.36.8.6,1.79.9,2.96.9,1.07,0,1.9-.21,2.49-.63.59-.42.88-.96.88-1.63,0-.8-.42-1.4-1.26-1.78-.84-.38-2.19-.81-4.07-1.28-2.01-.47-3.69-.96-5.02-1.48-1.34-.52-2.5-1.34-3.47-2.46-.97-1.12-1.46-2.64-1.46-4.55,0-1.61.44-3.07,1.33-4.4.89-1.32,2.19-2.37,3.92-3.14,1.73-.77,3.78-1.16,6.16-1.16,3.52,0,6.29.87,8.32,2.61,2.03,1.74,3.19,4.05,3.49,6.93h-7.94c-.13-.97-.56-1.74-1.28-2.31-.72-.57-1.67-.85-2.84-.85-1,0-1.78.19-2.31.58-.54.39-.8.91-.8,1.58,0,.8.43,1.41,1.28,1.81.85.4,2.19.8,3.99,1.21,2.08.54,3.77,1.06,5.08,1.58,1.31.52,2.45,1.36,3.44,2.51.99,1.16,1.5,2.71,1.53,4.65,0,1.64-.46,3.11-1.38,4.4-.92,1.29-2.24,2.3-3.97,3.04-1.73.74-3.73,1.11-6,1.11-2.45,0-4.62-.42-6.53-1.26Z"/>
    <path class="cls-1" d="M284.95,51.26v7.29h-4.37c-3.12,0-5.54-.76-7.29-2.29-1.74-1.52-2.61-4.01-2.61-7.46v-11.16h-3.42v-7.14h3.42v-6.83h8.59v6.83h5.63v7.14h-5.63v11.26c0,.84.2,1.44.6,1.81.4.37,1.07.55,2.01.55h3.07Z"/>
    <path class="cls-1" d="M291.36,26.26c-.96-.89-1.43-1.98-1.43-3.29s.48-2.45,1.43-3.34c.95-.89,2.19-1.33,3.69-1.33s2.69.44,3.64,1.33c.96.89,1.43,2,1.43,3.34s-.48,2.4-1.43,3.29c-.95.89-2.17,1.33-3.64,1.33s-2.74-.44-3.69-1.33ZM299.32,30.51v28.04h-8.59v-28.04h8.59Z"/>
    <path class="cls-1" d="M321.41,31.31c1.49.8,2.64,1.86,3.44,3.17v-3.97h8.59v27.99c0,2.58-.51,4.92-1.53,7.01-1.02,2.09-2.58,3.76-4.67,5-2.09,1.24-4.7,1.86-7.81,1.86-4.15,0-7.52-.98-10.1-2.94-2.58-1.96-4.05-4.62-4.42-7.96h8.49c.27,1.07.9,1.92,1.91,2.54,1,.62,2.24.93,3.72.93,1.77,0,3.19-.51,4.25-1.53,1.06-1.02,1.58-2.66,1.58-4.9v-3.97c-.84,1.31-1.99,2.37-3.47,3.19-1.47.82-3.2,1.23-5.18,1.23-2.31,0-4.41-.59-6.28-1.78-1.88-1.19-3.36-2.88-4.45-5.08-1.09-2.19-1.63-4.73-1.63-7.61s.54-5.41,1.63-7.59c1.09-2.18,2.57-3.85,4.45-5.02,1.88-1.17,3.97-1.76,6.28-1.76,1.98,0,3.71.4,5.2,1.21ZM323.06,39.45c-1.19-1.24-2.64-1.86-4.35-1.86s-3.16.61-4.35,1.83c-1.19,1.22-1.78,2.91-1.78,5.05s.59,3.84,1.78,5.1c1.19,1.26,2.64,1.88,4.35,1.88s3.16-.62,4.35-1.86c1.19-1.24,1.78-2.93,1.78-5.07s-.6-3.84-1.78-5.08Z"/>
    <path class="cls-1" d="M365.95,46.59h-19.45c.13,1.74.69,3.07,1.68,3.99.99.92,2.2,1.38,3.64,1.38,2.14,0,3.63-.9,4.47-2.71h9.15c-.47,1.84-1.31,3.5-2.54,4.97-1.22,1.47-2.76,2.63-4.6,3.47-1.84.84-3.9,1.26-6.18,1.26-2.75,0-5.19-.59-7.34-1.76-2.14-1.17-3.82-2.85-5.02-5.02-1.21-2.18-1.81-4.72-1.81-7.64s.59-5.46,1.78-7.64c1.19-2.18,2.86-3.85,5-5.02,2.14-1.17,4.61-1.76,7.39-1.76s5.12.57,7.24,1.71c2.11,1.14,3.76,2.76,4.95,4.87,1.19,2.11,1.78,4.57,1.78,7.39,0,.8-.05,1.64-.15,2.51ZM357.31,41.81c0-1.47-.5-2.65-1.51-3.52-1-.87-2.26-1.31-3.77-1.31s-2.66.42-3.64,1.26c-.99.84-1.6,2.03-1.83,3.57h10.75Z"/>
  </g>
  <g>
    <path class="cls-1" d="M157.27,84.71c1.51-2.73,3.61-4.86,6.31-6.38,2.7-1.52,5.75-2.29,9.17-2.29,4.19,0,7.77,1.11,10.75,3.32,2.98,2.21,4.97,5.23,5.98,9.04h-9.45c-.7-1.47-1.7-2.6-2.99-3.37-1.29-.77-2.76-1.16-4.4-1.16-2.65,0-4.79.92-6.43,2.76-1.64,1.84-2.46,4.3-2.46,7.39s.82,5.54,2.46,7.39c1.64,1.84,3.78,2.76,6.43,2.76,1.64,0,3.11-.38,4.4-1.16,1.29-.77,2.29-1.89,2.99-3.37h9.45c-1,3.82-3,6.83-5.98,9.02-2.98,2.19-6.57,3.29-10.75,3.29-3.42,0-6.47-.76-9.17-2.29-2.7-1.52-4.8-3.64-6.31-6.36s-2.26-5.81-2.26-9.3.75-6.59,2.26-9.32Z"/>
    <path class="cls-1" d="M200.11,110.36c-2.19-1.17-3.92-2.85-5.18-5.02-1.26-2.18-1.88-4.72-1.88-7.64s.64-5.42,1.91-7.61c1.27-2.19,3.01-3.88,5.23-5.05,2.21-1.17,4.69-1.76,7.44-1.76s5.23.59,7.44,1.76c2.21,1.17,3.95,2.86,5.23,5.05,1.27,2.19,1.91,4.73,1.91,7.61s-.65,5.42-1.93,7.61c-1.29,2.19-3.05,3.88-5.28,5.05-2.23,1.17-4.72,1.76-7.46,1.76s-5.22-.59-7.41-1.76ZM211.71,102.88c1.16-1.21,1.73-2.93,1.73-5.18s-.56-3.97-1.68-5.18c-1.12-1.21-2.5-1.81-4.15-1.81s-3.07.6-4.17,1.78c-1.11,1.19-1.66,2.92-1.66,5.2s.54,3.97,1.63,5.18c1.09,1.21,2.45,1.81,4.1,1.81s3.04-.6,4.2-1.81Z"/>
    <path class="cls-1" d="M269.85,86.55c2.06,2.11,3.09,5.04,3.09,8.79v16.38h-8.54v-15.23c0-1.81-.48-3.21-1.43-4.2-.95-.99-2.27-1.48-3.94-1.48s-2.99.49-3.94,1.48c-.95.99-1.43,2.39-1.43,4.2v15.23h-8.54v-15.23c0-1.81-.48-3.21-1.43-4.2-.95-.99-2.27-1.48-3.94-1.48s-2.99.49-3.94,1.48c-.96.99-1.43,2.39-1.43,4.2v15.23h-8.59v-28.04h8.59v3.52c.87-1.17,2.01-2.1,3.42-2.79,1.41-.69,3-1.03,4.77-1.03,2.11,0,3.99.45,5.65,1.36,1.66.9,2.96,2.19,3.89,3.87.97-1.54,2.29-2.8,3.97-3.77,1.67-.97,3.5-1.46,5.48-1.46,3.48,0,6.26,1.06,8.32,3.17Z"/>
    <path class="cls-1" d="M293.04,90.82h-4.62v20.9h-8.59v-20.9h-3.12v-7.14h3.12v-.8c0-3.45.99-6.07,2.96-7.86,1.98-1.79,4.87-2.69,8.69-2.69.64,0,1.11.02,1.41.05v7.29c-1.64-.1-2.8.13-3.47.7-.67.57-1,1.59-1,3.07v.25h4.62v7.14Z"/>
    <path class="cls-1" d="M302.41,110.36c-2.19-1.17-3.92-2.85-5.18-5.02-1.26-2.18-1.88-4.72-1.88-7.64s.64-5.42,1.91-7.61c1.27-2.19,3.01-3.88,5.23-5.05,2.21-1.17,4.69-1.76,7.44-1.76s5.23.59,7.44,1.76c2.21,1.17,3.95,2.86,5.23,5.05,1.27,2.19,1.91,4.73,1.91,7.61s-.65,5.42-1.93,7.61c-1.29,2.19-3.05,3.88-5.28,5.05-2.23,1.17-4.72,1.76-7.46,1.76s-5.22-.59-7.41-1.76ZM314.02,102.88c1.16-1.21,1.73-2.93,1.73-5.18s-.56-3.97-1.68-5.18c-1.12-1.21-2.5-1.81-4.15-1.81s-3.07.6-4.17,1.78c-1.11,1.19-1.66,2.92-1.66,5.2s.54,3.97,1.63,5.18c1.09,1.21,2.45,1.81,4.1,1.81s3.04-.6,4.2-1.81Z"/>
    <path class="cls-1" d="M340.42,84.71c1.51-.89,3.18-1.33,5.02-1.33v9.09h-2.36c-2.14,0-3.75.46-4.82,1.38-1.07.92-1.61,2.54-1.61,4.85v13.01h-8.59v-28.04h8.59v4.67c1-1.54,2.26-2.76,3.77-3.64Z"/>
    <path class="cls-1" d="M366.2,104.44v7.29h-4.37c-3.12,0-5.54-.76-7.29-2.29-1.74-1.52-2.61-4.01-2.61-7.46v-11.16h-3.42v-7.14h3.42v-6.83h8.59v6.83h5.63v7.14h-5.63v11.26c0,.84.2,1.44.6,1.81.4.37,1.07.55,2.01.55h3.07Z"/>
  </g>
  <path class="cls-1" d="M132.39,49.23c-1.43-2.76-3.29-4.83-5.56-6.21-2.28-1.38-4.75-2.07-7.41-2.07h-24.5v36.6h25.46c2.65,0,5.04-.74,7.16-2.23,2.12-1.49,3.82-3.63,5.1-6.45,1.28-2.81,1.91-6.02,1.91-9.63,0-3.92-.72-7.27-2.15-10.03ZM0,0v134.68h72.96V21.7h47.89c5,0,9.6.98,13.82,2.95V0H0ZM121.65,96.81h-26.73v37.87h39.75v-40.31c-3.91,1.63-8.25,2.44-13.02,2.44Z"/>
</svg>