<?xml version="1.0" encoding="UTF-8"?>
<svg id="Layer_1" data-name="Layer 1" xmlns="http://www.w3.org/2000/svg" viewBox="0 0 500 500">
  <defs>
    <style>
      .cls-1 {
        letter-spacing: 0em;
      }

      .cls-2, .cls-3 {
        fill: #fff;
      }

      .cls-4 {
        letter-spacing: 0em;
      }

      .cls-5 {
        letter-spacing: -.02em;
      }

      .cls-6 {
        letter-spacing: -.02em;
      }

      .cls-7 {
        letter-spacing: .02em;
      }

      .cls-8 {
        letter-spacing: .02em;
      }

      .cls-3 {
        font-family: Poppins-Bold, Poppins;
        font-size: 50.25px;
        font-weight: 700;
      }
    </style>
  </defs>
  <g>
    <text class="cls-3" transform="translate(219.42 237.46)"><tspan x="0" y="0">P</tspan><tspan class="cls-8" x="31.35" y="0">r</tspan><tspan class="cls-4" x="53.87" y="0">es</tspan><tspan class="cls-8" x="112.86" y="0">t</tspan><tspan x="134.26" y="0">ige</tspan></text>
    <text class="cls-3" transform="translate(219.42 290.64)"><tspan x="0" y="0">C</tspan><tspan class="cls-6" x="38.29" y="0">o</tspan><tspan x="69.29" y="0">mf</tspan><tspan class="cls-5" x="140.59" y="0">o</tspan><tspan class="cls-7" x="171.6" y="0">r</tspan><tspan class="cls-1" x="194.11" y="0">t</tspan></text>
  </g>
  <path class="cls-2" d="M198.46,228.14c-1.43-2.76-3.29-4.83-5.56-6.21-2.28-1.38-4.75-2.07-7.41-2.07h-24.5v36.6h25.46c2.65,0,5.04-.74,7.16-2.23,2.12-1.49,3.82-3.63,5.1-6.45,1.28-2.81,1.91-6.02,1.91-9.63,0-3.92-.72-7.27-2.15-10.03ZM66.07,178.91v134.68h72.96v-112.98h47.89c5,0,9.6.98,13.82,2.95v-24.65H66.07ZM187.73,275.72h-26.73v37.87h39.75v-40.31c-3.91,1.63-8.25,2.44-13.02,2.44Z"/>
</svg>